<?xml version="1.0" encoding="UTF-8"?>
<svg id="_Слой_1" data-name="Слой 1" xmlns="http://www.w3.org/2000/svg" viewBox="0 0 321.15 308.89">
  <defs>
    <style>
      .cls-1, .cls-2 {
        fill: #006400;
      }

      .cls-2, .cls-3 {
        stroke: #000;
        stroke-miterlimit: 10;
      }

      .cls-3, .cls-4 {
        fill: #babad8;
      }

      .cls-5 {
        fill: #efede4;
      }

      .cls-6 {
        fill: #40a040;
      }

      .cls-7 {
        fill: #575587;
      }
    </style>
  </defs>
  <ellipse class="cls-2" cx="161.22" cy="184.45" rx="106.49" ry="86.14"/>
  <g>
    <ellipse class="cls-3" cx="125.96" cy="269.2" rx="17.5" ry="8.92"/>
    <ellipse class="cls-3" cx="195.59" cy="269.2" rx="17.5" ry="8.92"/>
  </g>
  <g>
    <g>
      <g>
        <g>
          <path class="cls-7" d="m135.99,57.87c-18.02,3.8-39.4,4.61-55.54-7.87-2.37-1.83-3.9,1.22-3.72,3.56,3.52,46.75,69.06,32.91,65.1,10.09.92-.8-1.07-6.55-5.84-5.79Z"/>
          <path d="m110.69,85.21c-5.42,0-10.92-.97-15.95-3.19-7.73-3.41-17.21-11.12-18.51-28.42-.12-1.59.48-3.68,1.84-4.41.58-.31,1.51-.49,2.69.41,13.08,10.11,31.62,12.72,55.13,7.77h.02c3.06-.49,5.15,1.48,6.1,3.48.48,1.02.74,2.25.35,2.92.76,4.92-1.58,9.79-6.62,13.72-5.85,4.57-15.3,7.7-25.04,7.7Zm-31.64-35.27c-.18,0-.35.04-.51.13-.84.45-1.43,2-1.32,3.45,1.26,16.81,10.44,24.27,17.92,27.58,13.74,6.07,31.12,2.54,39.98-4.38,4.81-3.76,7.01-8.37,6.21-12.98l-.05-.28.21-.18c.13-.19.06-1.31-.72-2.59-.52-.84-2.01-2.76-4.7-2.33-23.8,5.01-42.62,2.33-55.93-7.96-.39-.3-.76-.45-1.09-.45Z"/>
        </g>
        <g>
          <path class="cls-1" d="m133.99,67.19c-15.88,9.32-35.9,16.87-55.16,10.16-2.83-.99-3.31,2.39-2.4,4.56,18.17,43.22,75.94,9.29,64.94-11.09.62-1.05-3.1-5.87-7.37-3.64Z"/>
          <path d="m105.78,103.33c-1.08,0-2.16-.05-3.24-.15-8.41-.79-19.85-5.08-26.57-21.08-.62-1.47-.71-3.64.35-4.76.45-.48,1.28-.95,2.68-.46,15.61,5.44,34.03,2.03,54.74-10.12h.02c2.74-1.44,5.36-.24,6.89,1.36.78.82,1.41,1.9,1.26,2.66,2.29,4.42,1.61,9.78-1.92,15.12-5.92,8.94-19.94,17.43-34.2,17.43Zm-27.88-25.65c-.35,0-.64.12-.85.35-.65.69-.72,2.35-.15,3.69,6.53,15.54,17.6,19.71,25.74,20.47,14.96,1.41,30.32-7.46,36.52-16.84,3.37-5.09,4-10.16,1.77-14.28l-.13-.25.14-.24c.07-.22-.35-1.26-1.51-2.23-.76-.63-2.78-1.98-5.2-.72-20.98,12.31-39.67,15.74-55.57,10.2-.28-.1-.54-.15-.77-.15Z"/>
        </g>
      </g>
      <g>
        <g>
          <path class="cls-7" d="m180.64,63.66c-3.96,22.82,61.58,36.66,65.1-10.09.18-2.34-1.35-5.39-3.72-3.56-16.14,12.47-37.52,11.66-55.54,7.87-4.77-.76-6.76,4.99-5.84,5.79Z"/>
          <path d="m211.77,85.21c-9.75,0-19.2-3.13-25.04-7.7-5.04-3.94-7.38-8.8-6.62-13.72-.39-.67-.13-1.9.35-2.92.94-2.01,3.03-3.97,6.1-3.49,23.53,4.96,42.07,2.34,55.15-7.77,1.17-.91,2.11-.72,2.69-.41,1.36.73,1.96,2.82,1.84,4.41-1.3,17.3-10.78,25-18.51,28.42-5.03,2.22-10.54,3.19-15.95,3.19Zm-26.15-26.91c-2.21,0-3.47,1.63-3.93,2.4-.79,1.28-.85,2.4-.71,2.6l.21.19-.06.27c-.8,4.61,1.41,9.22,6.21,12.98,8.86,6.92,26.24,10.46,39.98,4.38,7.48-3.3,16.65-10.77,17.92-27.58.11-1.45-.48-3-1.32-3.45-.46-.25-1-.14-1.6.32-13.32,10.3-32.14,12.98-55.95,7.96-.26-.04-.51-.06-.75-.06Z"/>
        </g>
        <g>
          <path class="cls-1" d="m181.1,70.83c-11,20.38,46.77,54.3,64.94,11.09.91-2.17.43-5.54-2.4-4.56-19.26,6.71-39.28-.84-55.16-10.16-4.28-2.24-7.99,2.58-7.37,3.64Z"/>
          <path d="m216.68,103.33c-14.26,0-28.28-8.49-34.2-17.43-3.53-5.33-4.21-10.69-1.92-15.12-.15-.76.48-1.84,1.26-2.66,1.53-1.6,4.15-2.81,6.89-1.37,20.74,12.17,39.16,15.57,54.77,10.13,1.4-.49,2.23-.02,2.68.46,1.05,1.12.97,3.29.35,4.76-6.72,16-18.16,20.29-26.57,21.08-1.08.1-2.16.15-3.24.15Zm-30.48-36.23c-1.47,0-2.63.79-3.16,1.24-1.15.96-1.57,2.01-1.5,2.24l.14.24-.14.24c-2.22,4.12-1.6,9.19,1.77,14.28,6.21,9.38,21.56,18.26,36.52,16.84,8.14-.76,19.21-4.93,25.74-20.47.56-1.34.5-3-.15-3.69-.36-.38-.9-.45-1.62-.2-15.9,5.54-34.6,2.11-55.58-10.2-.71-.37-1.4-.52-2.02-.52Z"/>
        </g>
      </g>
    </g>
    <g>
      <g>
        <path class="cls-1" d="m252.31,143.23c0,50.3-40.78,134.12-91.07,134.12s-91.07-83.82-91.07-134.12,40.78-91.07,91.07-91.07,91.07,40.78,91.07,91.07Z"/>
        <path d="m161.23,277.85c-30.91,0-53.88-30.35-64.83-48.44-16.25-26.86-26.75-60.69-26.75-86.18,0-50.49,41.08-91.57,91.58-91.57s91.57,41.08,91.57,91.57c0,25.5-10.5,59.32-26.75,86.18-10.94,18.09-33.92,48.44-64.83,48.44Zm0-225.19c-49.94,0-90.58,40.63-90.58,90.57s41.45,133.62,90.58,133.62,90.57-82.07,90.57-133.62-40.63-90.57-90.57-90.57Z"/>
      </g>
      <g>
        <path class="cls-6" d="m245.08,143.23c0,46.31-37.54,102.74-83.84,102.74s-83.84-56.43-83.84-102.74"/>
        <path d="m161.23,246.47c-46.72,0-84.34-56.48-84.34-103.24h1c0,22.77,9.14,48.35,24.46,68.43,16.62,21.8,37.54,33.81,58.89,33.81s42.26-12.01,58.89-33.81c15.31-20.08,24.46-45.66,24.46-68.43h1c0,46.76-37.62,103.24-84.34,103.24Z"/>
      </g>
      <g>
        <path class="cls-7" d="m119.44,142.26c16.84,3.61,34.28,4.42,51.43,3.01,15.96-1.31,31.7-4.78,46.85-9.93,11-3.74,21.65-8.39,31.97-13.7-9.77-39.78-45.66-69.28-88.44-69.28s-79.84,30.47-88.9,71.22c14.62,8.78,30.38,15.1,47.1,18.68Z"/>
        <path d="m155.04,146.43c-12.35,0-24.31-1.23-35.71-3.68-16.56-3.56-32.46-9.86-47.25-18.75l-.31-.19.08-.35c4.45-20.01,15.71-38.18,31.71-51.17,16.24-13.18,36.72-20.44,57.67-20.44,42.29,0,78.86,28.65,88.93,69.67l.09.38-.35.18c-10.76,5.54-21.54,10.16-32.04,13.73-15.67,5.33-31.48,8.68-46.97,9.95-5.35.44-10.64.66-15.86.66Zm-35.5-4.65c16.13,3.46,33.38,4.47,51.28,3,15.41-1.27,31.13-4.6,46.73-9.9,10.33-3.51,20.95-8.05,31.55-13.49-10.1-40.36-46.17-68.52-87.86-68.52s-79.07,29.62-88.33,70.48c14.61,8.73,30.3,14.93,46.64,18.44Z"/>
      </g>
      <g>
        <g>
          <path class="cls-7" d="m205.22,85c-21.53,0-39.53,15.31-43.99,35.78-4.47-20.47-22.46-35.78-43.99-35.78-24.89,0-45.07,20.46-45.07,45.69s20.18,45.69,45.07,45.69c14.53,0,27.45-6.97,35.69-17.8,3.97-5.22,12.23-6.1,15.77-1.15,8.18,11.48,21.49,18.94,36.53,18.94,24.89,0,45.07-20.46,45.07-45.69s-20.18-45.69-45.07-45.69Z"/>
          <path d="m205.22,176.87c-14.58,0-28.38-7.16-36.94-19.15-1.38-1.94-3.61-3.03-6.27-3.07-3.34-.06-6.67,1.57-8.69,4.23-8.7,11.44-21.85,18-36.08,18-25.12,0-45.57-20.72-45.57-46.19s20.44-46.19,45.57-46.19c20.51,0,38.69,14.24,43.99,34.16,5.3-19.91,23.48-34.16,43.99-34.16,25.12,0,45.57,20.72,45.57,46.19s-20.44,46.19-45.57,46.19Zm-43.36-23.22c.06,0,.11,0,.17,0,2.99.05,5.5,1.29,7.07,3.49,8.37,11.73,21.87,18.73,36.12,18.73,24.57,0,44.57-20.27,44.57-45.19s-19.99-45.19-44.57-45.19c-20.73,0-39.03,14.88-43.5,35.39l-.49,2.24-.49-2.24c-4.47-20.5-22.77-35.39-43.5-35.39-24.57,0-44.57,20.27-44.57,45.19s19.99,45.19,44.57,45.19c13.91,0,26.78-6.42,35.29-17.6,2.18-2.86,5.74-4.62,9.33-4.62Z"/>
        </g>
        <g>
          <g>
            <ellipse class="cls-4" cx="205.22" cy="130.88" rx="40.42" ry="40.98"/>
            <path d="m205.22,172.36c-22.56,0-40.92-18.61-40.92-41.48s18.36-41.48,40.92-41.48,40.92,18.61,40.92,41.48-18.36,41.48-40.92,41.48Zm0-81.96c-22.01,0-39.92,18.16-39.92,40.48s17.91,40.48,39.92,40.48,39.92-18.16,39.92-40.48-17.91-40.48-39.92-40.48Z"/>
          </g>
          <g>
            <circle class="cls-5" cx="198.98" cy="133.61" r="22.39"/>
            <path d="m198.98,156.5c-12.62,0-22.89-10.27-22.89-22.89s10.27-22.89,22.89-22.89,22.89,10.27,22.89,22.89-10.27,22.89-22.89,22.89Zm0-44.78c-12.07,0-21.89,9.82-21.89,21.89s9.82,21.89,21.89,21.89,21.89-9.82,21.89-21.89-9.82-21.89-21.89-21.89Z"/>
          </g>
          <g>
            <circle cx="197.51" cy="134.53" r="11.19"/>
            <path d="m197.51,146.23c-6.45,0-11.69-5.25-11.69-11.69s5.25-11.69,11.69-11.69,11.7,5.25,11.7,11.69-5.25,11.69-11.7,11.69Zm0-22.39c-5.9,0-10.69,4.8-10.69,10.69s4.8,10.69,10.69,10.69,10.7-4.8,10.7-10.69-4.8-10.69-10.7-10.69Z"/>
          </g>
        </g>
        <g>
          <ellipse class="cls-4" cx="117.24" cy="130.88" rx="40.42" ry="40.98"/>
          <path d="m117.24,172.36c-22.56,0-40.92-18.61-40.92-41.48s18.36-41.48,40.92-41.48,40.92,18.61,40.92,41.48-18.36,41.48-40.92,41.48Zm0-81.96c-22.01,0-39.92,18.16-39.92,40.48s17.91,40.48,39.92,40.48,39.92-18.16,39.92-40.48-17.91-40.48-39.92-40.48Z"/>
        </g>
        <g>
          <circle class="cls-5" cx="123.48" cy="133.61" r="22.39"/>
          <path d="m123.48,156.5c-12.62,0-22.89-10.27-22.89-22.89s10.27-22.89,22.89-22.89,22.89,10.27,22.89,22.89-10.27,22.89-22.89,22.89Zm0-44.78c-12.07,0-21.89,9.82-21.89,21.89s9.82,21.89,21.89,21.89,21.89-9.82,21.89-21.89-9.82-21.89-21.89-21.89Z"/>
        </g>
        <g>
          <circle cx="125.09" cy="134.53" r="11.19"/>
          <path d="m125.09,146.23c-6.45,0-11.69-5.25-11.69-11.69s5.25-11.69,11.69-11.69,11.69,5.25,11.69,11.69-5.25,11.69-11.69,11.69Zm0-22.39c-5.9,0-10.69,4.8-10.69,10.69s4.8,10.69,10.69,10.69,10.69-4.8,10.69-10.69-4.8-10.69-10.69-10.69Z"/>
        </g>
        <g>
          <path class="cls-5" d="m174.87,158.24c2.8-9.14-3.98-18.49-13.54-18.56-.11,0-.22,0-.33,0s-.22,0-.33,0c-9.55.08-16.33,9.43-13.53,18.56.65,2.13,1.52,4.34,2.65,6.48,3.87,7.29,11.21,11.66,11.21,11.66,0,0,7.34-4.37,11.21-11.66,1.14-2.14,2-4.35,2.65-6.48Z"/>
          <path d="m161.01,176.96l-.26-.15c-.3-.18-7.51-4.53-11.4-11.85-1.06-2-1.97-4.21-2.69-6.57-1.39-4.53-.57-9.32,2.24-13.16,2.79-3.81,7.08-6.01,11.77-6.05h.34s.33,0,.33,0c4.69.04,8.98,2.24,11.77,6.05,2.81,3.83,3.63,8.63,2.24,13.16l-.48-.15.48.15c-.72,2.35-1.62,4.56-2.69,6.57-3.89,7.33-11.09,11.67-11.4,11.85l-.26.15Zm0-36.78h-.33c-4.37.04-8.37,2.1-10.97,5.64-2.62,3.58-3.38,8.05-2.09,12.27.7,2.29,1.58,4.44,2.62,6.39,3.35,6.31,9.45,10.46,10.77,11.3,1.32-.85,7.42-4.99,10.77-11.3,1.04-1.95,1.92-4.1,2.62-6.39,1.29-4.23.53-8.7-2.09-12.28-2.6-3.55-6.6-5.6-10.97-5.64h-.32Z"/>
        </g>
      </g>
    </g>
  </g>
</svg>